# TunaSweeper rifle shell casing. Coordinates are centimetres; the casing axis is +X.
o WeaponShellCasing
v -1.70 0.00 0.62
v -1.70 0.31 0.54
v -1.70 0.54 0.31
v -1.70 0.62 0.00
v -1.70 0.54 -0.31
v -1.70 0.31 -0.54
v -1.70 0.00 -0.62
v -1.70 -0.31 -0.54
v -1.70 -0.54 -0.31
v -1.70 -0.62 0.00
v -1.70 -0.54 0.31
v -1.70 -0.31 0.54
v -1.45 0.00 0.70
v -1.45 0.35 0.61
v -1.45 0.61 0.35
v -1.45 0.70 0.00
v -1.45 0.61 -0.35
v -1.45 0.35 -0.61
v -1.45 0.00 -0.70
v -1.45 -0.35 -0.61
v -1.45 -0.61 -0.35
v -1.45 -0.70 0.00
v -1.45 -0.61 0.35
v -1.45 -0.35 0.61
v 1.45 0.00 0.54
v 1.45 0.27 0.47
v 1.45 0.47 0.27
v 1.45 0.54 0.00
v 1.45 0.47 -0.27
v 1.45 0.27 -0.47
v 1.45 0.00 -0.54
v 1.45 -0.27 -0.47
v 1.45 -0.47 -0.27
v 1.45 -0.54 0.00
v 1.45 -0.47 0.27
v 1.45 -0.27 0.47
v 1.70 0.00 0.58
v 1.70 0.29 0.50
v 1.70 0.50 0.29
v 1.70 0.58 0.00
v 1.70 0.50 -0.29
v 1.70 0.29 -0.50
v 1.70 0.00 -0.58
v 1.70 -0.29 -0.50
v 1.70 -0.50 -0.29
v 1.70 -0.58 0.00
v 1.70 -0.50 0.29
v 1.70 -0.29 0.50
v -1.72 0.00 0.26
v -1.72 0.13 0.23
v -1.72 0.23 0.13
v -1.72 0.26 0.00
v -1.72 0.23 -0.13
v -1.72 0.13 -0.23
v -1.72 0.00 -0.26
v -1.72 -0.13 -0.23
v -1.72 -0.23 -0.13
v -1.72 -0.26 0.00
v -1.72 -0.23 0.13
v -1.72 -0.13 0.23
v 0.00 0.00 0.00
g SM_WeaponShellCasing
f 1 2 14 13
f 2 3 15 14
f 3 4 16 15
f 4 5 17 16
f 5 6 18 17
f 6 7 19 18
f 7 8 20 19
f 8 9 21 20
f 9 10 22 21
f 10 11 23 22
f 11 12 24 23
f 12 1 13 24
f 13 14 26 25
f 14 15 27 26
f 15 16 28 27
f 16 17 29 28
f 17 18 30 29
f 18 19 31 30
f 19 20 32 31
f 20 21 33 32
f 21 22 34 33
f 22 23 35 34
f 23 24 36 35
f 24 13 25 36
f 25 26 38 37
f 26 27 39 38
f 27 28 40 39
f 28 29 41 40
f 29 30 42 41
f 30 31 43 42
f 31 32 44 43
f 32 33 45 44
f 33 34 46 45
f 34 35 47 46
f 35 36 48 47
f 36 25 37 48
f 1 12 11 10 9 8 7 6 5 4 3 2
f 37 38 39 40 41 42 43 44 45 46 47 48
g SM_WeaponShellCasing
f 49 50 62 61
f 50 51 63 62
f 51 52 64 63
f 52 53 65 64
f 53 54 66 65
f 54 55 67 66
f 55 56 68 67
f 56 57 69 68
f 57 58 70 69
f 58 59 71 70
f 59 60 72 71
f 60 49 61 72
f 61 62 73
f 62 63 73
f 63 64 73
f 64 65 73
f 65 66 73
f 66 67 73
f 67 68 73
f 68 69 73
f 69 70 73
f 70 71 73
f 71 72 73
f 72 61 73
