# Generated by Tools/GarageDoor/generate_garage_door_objs.py
# X = width, Y = thickness/depth, Z = height; centimetres.
o SM_GarageDoor_FrameTop
v -335.000000 -22.500000 -17.500000
v 335.000000 -22.500000 -17.500000
v 335.000000 22.500000 -17.500000
v -335.000000 22.500000 -17.500000
v -335.000000 -22.500000 17.500000
v 335.000000 -22.500000 17.500000
v 335.000000 22.500000 17.500000
v -335.000000 22.500000 17.500000
vn 0.0 0.0 -1.0
vn 0.0 0.0 1.0
vn 0.0 -1.0 0.0
vn 1.0 0.0 0.0
vn 0.0 1.0 0.0
vn -1.0 0.0 0.0
vt 0.006000 0.672667
vt 0.244000 0.672667
vt 0.244000 0.994000
vt 0.006000 0.994000
vt 0.006000 0.672667
vt 0.244000 0.672667
vt 0.244000 0.994000
vt 0.006000 0.994000
vt 0.006000 0.672667
vt 0.244000 0.672667
vt 0.244000 0.994000
vt 0.006000 0.994000
vt 0.006000 0.672667
vt 0.244000 0.672667
vt 0.244000 0.994000
vt 0.006000 0.994000
vt 0.006000 0.672667
vt 0.244000 0.672667
vt 0.244000 0.994000
vt 0.006000 0.994000
vt 0.006000 0.672667
vt 0.244000 0.672667
vt 0.244000 0.994000
vt 0.006000 0.994000
f 1/1/1 4/2/1 3/3/1 2/4/1
f 5/5/2 6/6/2 7/7/2 8/8/2
f 1/9/3 2/10/3 6/11/3 5/12/3
f 2/13/4 3/14/4 7/15/4 6/16/4
f 3/17/5 4/18/5 8/19/5 7/20/5
f 4/21/6 1/22/6 5/23/6 8/24/6
